<svg xmlns="http://www.w3.org/2000/svg" width="216.594" height="32.281" viewBox="0 0 216.594 32.281">
  <defs>
    <style>
      .cls-1 {
        fill: #5f5f5f;
        fill-rule: evenodd;
      }
    </style>
  </defs>
  <path id="logo" class="cls-1" d="M198.014,34.253h0.91v0.078a3.907,3.907,0,0,1,.937.3,1.194,1.194,0,0,0,.478.327h0.252V35.03c0.133-.007.243,0.007,0.252,0.128a2.076,2.076,0,0,1,.657.377v0.1a0.269,0.269,0,0,0,.177.078,2.273,2.273,0,0,0,.227.37c0.007,0.035.062,0.023,0.1,0.029a0.19,0.19,0,0,0,.179.251c0.037,0.144-.012.361,0.152,0.379,0.037,0.114-.078.382,0.078,0.375,0.05,0.174-.113.567,0.1,0.578a5.985,5.985,0,0,1,0,1.159h-0.1V39.1c-0.133-.034-0.062.133-0.078,0.2h-0.1a1.17,1.17,0,0,1-.051.379h-0.1v0.2a1.173,1.173,0,0,1-.179.047,0.243,0.243,0,0,1-.3.252,0.282,0.282,0,0,1-.326.126c-0.03,0-.02.041-0.028,0.071h-0.656V40.315c-0.28.034-.4-0.087-0.679-0.051-0.049-.066-0.012-0.223-0.152-0.2a0.245,0.245,0,0,0-.179-0.256c-0.012-.089.046-0.245-0.1-0.2,0.039-.407-0.065-0.667-0.049-1.059a0.115,0.115,0,0,0-.1-0.02,0.257,0.257,0,0,0-.177-0.307c-0.032-.123,0-0.324-0.149-0.324a2.991,2.991,0,0,0-.078-0.554c-0.009-.039-0.065-0.023-0.1-0.03-0.037-.158.022-0.42-0.15-0.449a0.3,0.3,0,0,0-.174-0.325V36.392c-0.168,0-.083-0.237-0.258-0.226a0.252,0.252,0,0,0-.174-0.3c0.081-.3-0.209-0.229-0.229-0.429-0.005-.033-0.058-0.02-0.1-0.022-0.052-.1.016-0.331-0.151-0.331v-0.5c0.144,0.007.133-.142,0.151-0.252,0.092-.03.306,0.069,0.28-0.078m40.85,0.252h0.429v0.077a9.642,9.642,0,0,1,1.188.128c-0.021.07,0.087,0.027,0.049,0.12,0.249-.034.274,0.147,0.508,0.124V35.03a2.858,2.858,0,0,1,.528.051c-0.036.1,0.071,0.05,0.053,0.128h0.175a4.38,4.38,0,0,1,.583.552,0.619,0.619,0,0,1,.326.325c0.007,0.035.064,0.023,0.1,0.029-0.023.132,0.06,0.156,0.151,0.177,0,0.066-.023.151,0.079,0.126,0.026,0.113-.083.367,0.095,0.327v1.982h-0.095V38.98a1.026,1.026,0,0,1-.331.327c-0.014.29-.391,0.212-0.4,0.5a6.554,6.554,0,0,0-.657.256,0.5,0.5,0,0,0-.076.126,7.108,7.108,0,0,1-1.263-.052c0-.1-0.113-0.108-0.2-0.124a0.56,0.56,0,0,0-.328-0.279,2.347,2.347,0,0,1-.046-0.528c-0.009-.034-0.067-0.021-0.1-0.023V37.4c-0.007-.032-0.045-0.023-0.076-0.03v-0.6c0-.038-0.062-0.025-0.1-0.025a0.549,0.549,0,0,0-.228-0.508V36.063c-0.1-.067-0.268-0.069-0.254-0.252-0.078-.055-0.2-0.071-0.177-0.226h-0.152c0.012-.089.007-0.153-0.1-0.128-0.011-.068.048-0.213-0.071-0.171V34.711a0.525,0.525,0,0,1,.4-0.128V34.5Zm33.473,0.7c-0.037.1,0.067,0.05,0.046,0.123h0.205a0.988,0.988,0,0,0,.225.332,3.656,3.656,0,0,1,1.194.373,0.262,0.262,0,0,0,.323.255,0.328,0.328,0,0,0,.331.126,1.01,1.01,0,0,0,.326.2c0.012,0.094-.048.25,0.1,0.206v1.328h-0.1V42.4a0.127,0.127,0,0,0,.1.023,4.887,4.887,0,0,0,.047,1.255,0.1,0.1,0,0,0,.1.025v0.132h0.4a0.222,0.222,0,0,1,.2-0.132c-0.015-.3.38-0.2,0.377-0.5a1.658,1.658,0,0,1,.278-0.121,1.97,1.97,0,0,0,.053-0.4h0.1V42.3h0.1V42.1a0.991,0.991,0,0,0,.328-0.255c0.025-.079-0.064-0.279.076-0.252V41.271h0.1c-0.035-.215.087-0.284,0.053-0.508h0.1a3.109,3.109,0,0,0,.071-0.447h0.1a2.267,2.267,0,0,0,.051-0.426h0.1V39.611h0.1c0.034-.119-0.081-0.382.071-0.374v-0.7h0.1a5.271,5.271,0,0,1,.053-0.887,0.264,0.264,0,0,0,.177-0.327h0.1c-0.035-.172.082-0.2,0.05-0.374a0.171,0.171,0,0,0,.179-0.2,1.671,1.671,0,0,1,.351-0.045,0.725,0.725,0,0,1,.228.274,0.135,0.135,0,0,0,.1.023,0.258,0.258,0,0,0,.227.251c-0.009.087,0,.155,0.1,0.124a0.267,0.267,0,0,0,.253.274,0.153,0.153,0,0,0,.176.184c0.023,0.106.011,0.258,0.149,0.247a0.155,0.155,0,0,0,.18.2c-0.009.142-.007,0.274,0.149,0.256a1.022,1.022,0,0,1,.079.3c0.048,0.024.1,0.046,0.151,0.075-0.007.085-.023,0.183,0.1,0.149a0.293,0.293,0,0,0,.176.3c0.022,0.1-.067.3,0.1,0.254v0.654H281v0.252c-0.144-.043-0.008.192-0.176,0.124v0.2c-0.143-.009-0.128.142-0.152,0.252a0.267,0.267,0,0,0-.179.324c-0.1-.027-0.112.046-0.1,0.129a3.315,3.315,0,0,1-.325.256c0.029,0.127-.088.111-0.054,0.249a0.416,0.416,0,0,0-.176.051v0.152a0.227,0.227,0,0,0-.179.244,3.083,3.083,0,0,0-.505.378c0.047,0.164-.122.1-0.073,0.255a0.445,0.445,0,0,0-.357.2,3.6,3.6,0,0,0-.881.583v0.121h-0.175a0.364,0.364,0,0,1-.33.176,1.29,1.29,0,0,1-.61.322,4.963,4.963,0,0,0-1.386.258,0.477,0.477,0,0,0-.1.325h-0.1a2.682,2.682,0,0,0-.047.7h-0.1V46.5a0.128,0.128,0,0,0,.1.019,0.92,0.92,0,0,0,.378.759c0.088,0.029.306-.069,0.275,0.078h0.985c0.033-.009.023-0.049,0.026-0.078a0.564,0.564,0,0,0,.558-0.33,0.415,0.415,0,0,0,.326-0.255h0.179a1.555,1.555,0,0,1,.253-0.293,0.294,0.294,0,0,0,.326-0.283,3.4,3.4,0,0,1,.685-0.046,1.878,1.878,0,0,0,.5.448,1.3,1.3,0,0,0,.152.279c0.158,0.009.116,0.215,0.277,0.222,0.023,0.116.011,0.267,0.149,0.258a3.38,3.38,0,0,0,.23.352c0.125-.015.056,0.158,0.178,0.145v0.258c0.162-.014.094,0.2,0.252,0.192V49.06c-0.108-.018-0.114.037-0.1,0.129-0.182-.04-0.165.128-0.23,0.206h-0.226a2.488,2.488,0,0,0-.355.2,7.3,7.3,0,0,1-1.159.049,0.749,0.749,0,0,1-.051.077,4.62,4.62,0,0,1-1.237,0c-0.055.012-.049-0.039-0.049-0.077-0.119,0-.266-0.034-0.28.077a1.219,1.219,0,0,0-.76.128,4.065,4.065,0,0,0-.782.039c-0.084.147-.378,0.082-0.354,0.339h-0.1a3.482,3.482,0,0,0,0,1.179c0.007,0.036.065,0.021,0.1,0.023a4.049,4.049,0,0,1,0,1.026h-0.1v1.639a0.119,0.119,0,0,0,.1.025c-0.056,1.248.089,2.3,0.076,3.5,0.005,0.035.061,0.021,0.1,0.026-0.034.955,0.046,1.8,0.05,2.718a0.119,0.119,0,0,0,.1.025v0.728c0,0.036.067,0.016,0.1,0.021,0.073,1.193.092,2.445,0.073,3.725-0.141-.043,0,0.192-0.176.123v0.176c-0.172-.009-0.154.167-0.149,0.327a0.532,0.532,0,0,0-.328.251,1.8,1.8,0,0,1-.735.123c-0.028,0-.023.051-0.026,0.078H274.1c-0.067.133-.278,0.126-0.351,0.252-0.108-.011-0.189,0-0.2.074h-0.737a0.351,0.351,0,0,0-.324-0.074V66.116a1.93,1.93,0,0,1-.581-0.3c0-.069.023-0.158-0.078-0.124-0.026-.1.076-0.324-0.1-0.273-0.012-2.489-.078-4.921-0.046-7.45a0.107,0.107,0,0,0-.1-0.027c-0.039-.354-0.406-0.073-0.578-0.048a5.266,5.266,0,0,0-.508.454,0.283,0.283,0,0,0-.329.177,0.565,0.565,0,0,0-.426.2,0.33,0.33,0,0,0-.331.128,3.832,3.832,0,0,1-1.187,0,1.127,1.127,0,0,0-.48-0.379c-0.035-.117-0.039-0.261-0.179-0.27-0.035-.146.011-0.369-0.15-0.379a0.607,0.607,0,0,0-.174-0.634c-0.011-.093.046-0.242-0.105-0.2-0.033-.336-0.327-0.412-0.377-0.738a0.723,0.723,0,0,0-.278-0.142,3.09,3.09,0,0,1-.053-0.781,2.071,2.071,0,0,1,.909,0V55.4c0.176,0.006.4-.042,0.407,0.129a2.117,2.117,0,0,0,1.818-.578h0.154a3.061,3.061,0,0,0,.349-0.45c0.111,0.029.118-.035,0.1-0.124,0.077,0,.054-0.089.152-0.052a1.581,1.581,0,0,1,.076-0.272c0.118,0.03.083-.087,0.2-0.052a1.855,1.855,0,0,0,.053-0.334h0.1a2.87,2.87,0,0,1,.074-0.325h0.1a3.272,3.272,0,0,0,.05-0.38h0.106c-0.048-.279.129-0.336,0.074-0.622h0.1a2.788,2.788,0,0,1,.049-0.452h0.1V51.68h0.1c0.025-.1-0.071-0.323.073-0.3V50.925h0.1c-0.048-.16.1-0.51-0.1-0.507a1.56,1.56,0,0,0-.073-0.5,1.491,1.491,0,0,0-.962-0.2,1.954,1.954,0,0,0-.986-0.127c-0.091.036-.013-0.089-0.075-0.078-0.1-.044-0.055.062-0.1,0.078-0.638.1-1.249-.032-1.849,0.049-0.036,0-.011.077-0.049,0.077h-1.011c-0.053.012-.045-0.039-0.053-0.077a3.029,3.029,0,0,1-.859-0.249,1.8,1.8,0,0,0-.225-0.352c-0.007-.032-0.064-0.016-0.1-0.023-0.021-.1.066-0.3-0.1-0.258a3.149,3.149,0,0,1-.079-0.983,2.025,2.025,0,0,1,1.263-.245,2.689,2.689,0,0,0,.482.206h1.158c0.018-.082.1-0.091,0.2-0.082,0.055-.009.048,0.042,0.053,0.082h1.06a0.529,0.529,0,0,1,.051-0.082c0.473,0.042.79-.068,1.238-0.05,0.03,0,.023-0.046.025-0.074A2.208,2.208,0,0,0,271.5,47.1v-1.18c-0.011-.054.034-0.052,0.073-0.052,0.04-.288-0.13-0.369-0.073-0.67a1.229,1.229,0,0,0-.735-0.032,0.882,0.882,0,0,1-.528.324,0.812,0.812,0,0,0-.079.129,4.923,4.923,0,0,1-.656.069,0.782,0.782,0,0,0-.432-0.247V45.316a2.116,2.116,0,0,0-.426-0.524,0.791,0.791,0,0,0-.152-0.358c-0.007-.108.038-0.29-0.076-0.3v-0.53a0.123,0.123,0,0,0-.1-0.027v-0.8c-0.009-.037-0.068-0.023-0.1-0.028a4.09,4.09,0,0,0-.053-0.549c-0.007-.035-0.058-0.018-0.1-0.025a0.337,0.337,0,0,0-.225-0.376V41.62a0.306,0.306,0,0,1-.178-0.325,1.063,1.063,0,0,0-.332-0.274,0.265,0.265,0,0,0-.1-0.307c0.2,0.016.056-.311,0.1-0.451h0.155a1.217,1.217,0,0,1,.934-0.075c0.23,0.343.928,0.214,1.136,0.573a0.3,0.3,0,0,1,.329.207,0.813,0.813,0,0,1,.277.053c0,0.116.026,0.205,0.152,0.2a0.165,0.165,0,0,0,.177.2v0.1a1.061,1.061,0,0,0,.882.329c0.055-.028-0.007-0.179.131-0.124,0.013-.071-0.046-0.216.073-0.178V40.591a0.382,0.382,0,0,1-.073-0.05v-1.3c-0.011-.06.034-0.051,0.073-0.053-0.037-1.035-.113-2.02-0.073-3.12-0.008-.035-0.065-0.022-0.1-0.027V35.458a0.233,0.233,0,0,0,.177-0.25,1.888,1.888,0,0,1,.76,0m18.893,0.377a9.6,9.6,0,0,1,1.517.451c-0.038.259,0.32,0.118,0.325,0.328a1.149,1.149,0,0,1,.534.249,0.237,0.237,0,0,0,.177.254c-0.039.123,0.092,0.411-.1,0.379a9.586,9.586,0,0,1-.076.978c0.026,0.073-.057.044-0.1,0.051,0,0.444-.08.8-0.045,1.285,0.021,0.073-.058.045-0.1,0.05v5.026a1.146,1.146,0,0,0,.1.053c0.009,0.734-.035,1.525.045,2.19,0.09,0.018.129,0.072,0.1,0.2,0.038,0.077.187,0.033,0.177,0.153a7.568,7.568,0,0,0,1.415.053,0.243,0.243,0,0,0,.225-0.129h0.157a1.5,1.5,0,0,0,.245-0.251,0.485,0.485,0,0,0,.284-0.206,4.149,4.149,0,0,0,.453-0.174c0.03,0,.021-0.042.022-0.069,0.178,0.027.2-.087,0.385-0.051,0.089,0.038.013-.089,0.073-0.077H297.2c0.085-.043.012,0.087,0.071,0.077a1.7,1.7,0,0,1,.909.426,1.378,1.378,0,0,1,.1.275,0.279,0.279,0,0,1,.225.256,1.422,1.422,0,0,1,.429.173v0.176c0.26,0.092.317,0.391,0.581,0.478a2.908,2.908,0,0,1,.076.95,0.259,0.259,0,0,0-.226.181c-0.121.007-.293-0.038-0.305,0.076H297.4c-0.089-.039-0.013.077-0.078,0.075-1.106.021-2.333-.056-3.356,0.046a0.62,0.62,0,0,1-.279.2v1.361a0.505,0.505,0,0,0,0,.571V53.6c-0.016.069,0.12-.018,0.1,0.045-0.04.887,0.064,1.641,0.053,2.492-0.02.064,0.115-.012,0.095,0.05-0.01.594,0.137,1.042,0.079,1.682a0.633,0.633,0,0,0,.1.05c0.013,1.723.107,3.453,0,5.154,0.024,0.08-.053.048-0.1,0.052a2.076,2.076,0,0,1-.227.627c-0.162.013-.169,0.182-0.325,0.206v0.2a11.715,11.715,0,0,1-1.341.5,1.093,1.093,0,0,1-.533.325,4.369,4.369,0,0,1-.678-0.078,0.3,0.3,0,0,0-.333-0.176,0.231,0.231,0,0,0-.227-0.2,0.3,0.3,0,0,0-.175-0.252c-0.006-.116.03-0.267-0.077-0.274V63.65c0.016-.067-0.118.015-0.1-0.048,0.041-3.675-.133-7.145-0.078-10.834-0.039-.092.087-0.019,0.078-0.076V50.724c0.039-.087-0.088-0.009-0.078-0.069V49.8c-0.106-.071-0.091-0.26-0.326-0.2,0.045-.122-0.1-0.035-0.078-0.124h-0.376c-0.092.036-.018-0.082-0.079-0.075h-0.907c-0.092-.039-0.017.077-0.078,0.075-0.539-.066-1.091.108-1.515,0a2.994,2.994,0,0,1-.86.046c-0.089-.044-0.016.085-0.073,0.078a3.988,3.988,0,0,0-1.113.127c-0.1.035-.09-0.044-0.127-0.078-0.409.056-.491-0.207-0.884-0.173a0.171,0.171,0,0,0-.174-0.151c0.016-.185-0.133-0.192-0.228-0.258a3.22,3.22,0,0,1-.254-0.6c0.018-.071-0.12.016-0.1-0.053a2.114,2.114,0,0,1,0-.8A1.99,1.99,0,0,0,283.2,47.4c1.534,0.046,3.121-.056,4.521,0,0.09-.036.016,0.087,0.076,0.08a0.327,0.327,0,0,1,.051-0.08c0.581,0.018,1.12-.011,1.642-0.04a0.4,0.4,0,0,1,.33-0.131,0.571,0.571,0,0,0,.1-0.4c-0.039-.091.087-0.014,0.078-0.08V41.972c-0.028-.075.06-0.043,0.1-0.052-0.037-.192.094-0.556-0.1-0.6a4.364,4.364,0,0,0-.152-1.383c-0.241-.029-0.279.158-0.33,0.327a1.276,1.276,0,0,1-.177.051,0.441,0.441,0,0,1-.253.325c0.036,0.242-.266.138-0.229,0.382a1.283,1.283,0,0,0-.351.2,1.837,1.837,0,0,1-.736-0.076C287.8,41,287.68,41,287.593,40.969c0.012-.087,0-0.156-0.1-0.129a0.451,0.451,0,0,0-.151-0.429,2.988,2.988,0,0,0-.072-0.577c-0.162.011-.042-0.262-0.2-0.251,0.036-.224-0.08-0.292-0.055-0.5a0.528,0.528,0,0,1-.175-0.407c-0.252-.053-0.222-0.393-0.482-0.449V38.1a5.968,5.968,0,0,0-.7-0.53,2.179,2.179,0,0,0-.225-0.681c0.025-.165.2-0.187,0.225-0.348,0.3-.046.39,0.133,0.7,0.071a1.7,1.7,0,0,1,.56.329,5.706,5.706,0,0,1,.708.053,0.632,0.632,0,0,0,.482.123c0.175,0.146.554,0.082,0.577,0.379a0.233,0.233,0,0,0,.174.074,1.374,1.374,0,0,0,.055.228,0.641,0.641,0,0,0,.279.151c0.008,0.3.387,0.233,0.4,0.531,0.051-.013.077,0,0.074,0.05a0.624,0.624,0,0,0,.252-0.05c-0.046-.89.133-1.55,0.078-2.445-0.028-.074.06-0.04,0.1-0.046V35.638a0.572,0.572,0,0,0,.153-0.306,1.123,1.123,0,0,1,.455-0.045c0.019,0,.179.034,0.2,0.045a0.533,0.533,0,0,0,0,.08c0.131,0.055.328,0.012,0.324,0.174m-161.143.581h0.6c0.086,0.171.51,0.012,0.584,0.2a1.962,1.962,0,0,1,.5.052v0.075a0.558,0.558,0,0,1,.482.353,0.805,0.805,0,0,0,.28.151v0.123a0.6,0.6,0,0,1,.252.075c-0.021.137,0.063,0.172,0.175,0.176-0.037.183,0.08,0.2,0.05,0.379,0.161,0,.127.192,0.281,0.2,0.029,0.105,0,.284.146,0.274a1.1,1.1,0,0,0,.079.227c0.16-.012.092,0.206,0.252,0.2,0.012,0.087-.046.242,0.1,0.2,0.019,0.075-.05.228,0.078,0.2,0.023,0.08-.066.283,0.074,0.249a0.3,0.3,0,0,0,.179.379c0.037,0.378.647,0.236,0.957,0.2,0.033-.008.023-0.053,0.023-0.082h0.232c0.007-.09.09-0.11,0.1-0.2a2.6,2.6,0,0,1,.834-0.3,0.431,0.431,0,0,1,.378-0.124,0.27,0.27,0,0,1,.279-0.125,0.535,0.535,0,0,1,.479-0.2,0.407,0.407,0,0,1,.43-0.131c0.03,0,.02-0.046.023-0.071a4.332,4.332,0,0,1,1.265,0,1.656,1.656,0,0,1,.25.2c0.425-.046.416,0.338,0.76,0.379a2.946,2.946,0,0,1,.051.626c0.009,0.036.062,0.019,0.1,0.027V40.84h-0.1c0.034,0.247-.083.334-0.051,0.576-0.1-.027-0.114.046-0.1,0.129a1.9,1.9,0,0,0-.429.428v0.205a0.168,0.168,0,0,0-.152.2,0.5,0.5,0,0,0-.328.254,0.472,0.472,0,0,0-.429.247,0.607,0.607,0,0,0-.329.132v0.124h-0.152a0.57,0.57,0,0,1-.506.121c-0.118-.03-0.159-0.228-0.279-0.166a3.472,3.472,0,0,1-.05-0.762c-0.053-.052-0.186-0.032-0.177-0.146a1.113,1.113,0,0,0-.909.32,1.341,1.341,0,0,0-.4.053,0.762,0.762,0,0,0-.356.375h-0.1c-0.039.144,0.08,0.441-.078,0.457a2.089,2.089,0,0,1,.078.553,0.109,0.109,0,0,0,.1.025c0.044,0.16-.019.421,0.152,0.455,0.025,0.078-.062.283,0.077,0.247,0.047,0.16-.107.509,0.1,0.507,0.034,0.124-.1.43,0.1,0.4,0,0.148-.025.325,0.15,0.3,0,0.068-.021.157,0.08,0.13,0.007,0.092-.048.238,0.1,0.193-0.035.264,0.08,0.36,0.05,0.607,0.01,0.039.065,0.027,0.1,0.027v0.247a0.213,0.213,0,0,0,.173.077c0.023,0.183-.014.419,0.156,0.453,0.016,0.1-.067.3,0.1,0.247a0.345,0.345,0,0,0,.176.374c0.081,0.112-.029.4,0.152,0.407a0.378,0.378,0,0,0,.177.425c0.009,0.181-.016.394,0.154,0.409a3.184,3.184,0,0,0,.073.519c0.009,0.041.064,0.03,0.1,0.03a0.422,0.422,0,0,0,.252.4,0.393,0.393,0,0,0,.177.429c0.03,0.165-.01.382,0.153,0.405a0.25,0.25,0,0,0,.175.3c-0.007.145,0,.284,0.152,0.279a0.227,0.227,0,0,0,.176.243c0.046,0.112,0,.31.152,0.308v0.253a0.554,0.554,0,0,0,.179.075,0.167,0.167,0,0,0,.151.195c0,0.093-.036.223,0.1,0.18a0.389,0.389,0,0,0,.23.325V53.6c0.216,0.1.195,0.438,0.429,0.522,0.009,0.089-.043.254,0.1,0.2V54.83c-0.1-.036-0.114.04-0.1,0.118-0.087.037-.246,0.009-0.25,0.128-0.071.009-.216-0.05-0.179,0.073h-0.329c0.056-.158-0.206,0-0.151-0.156a2.748,2.748,0,0,0-.429-0.046,0.785,0.785,0,0,0-.657-0.252c-0.009-.13-0.138-0.132-0.283-0.13a0.612,0.612,0,0,0-.654-0.245V54.24h-0.43a2.14,2.14,0,0,1-.477-0.19c-0.271.03-.386-0.087-0.659-0.052a1.49,1.49,0,0,0-.276-0.206,4.014,4.014,0,0,0-.81-0.05V53.664h-2.473c-0.03.005-.023,0.043-0.025,0.078a1.181,1.181,0,0,0-.859.128c-0.127-.009-0.225.018-0.23,0.129a0.212,0.212,0,0,0-.253.12,0.31,0.31,0,0,0-.328.122,4,4,0,0,0-.831.212c-0.055-.007-0.011.08-0.03,0.114a4.848,4.848,0,0,0-.957.633c-0.055,0-.012.1-0.023,0.128a0.294,0.294,0,0,0-.331.251,0.993,0.993,0,0,0-.33.13V55.9h-0.1c0.026,0.2-.092.251-0.053,0.452-0.2-.069,0,0.247-0.2.182-0.03.082,0.071,0.3-.075,0.27v0.508h-0.1v1.5a0.118,0.118,0,0,0,.1.03,0.95,0.95,0,0,0,.075.626v0.384a0.669,0.669,0,0,0,.2.142c0,0.156-.027.334,0.15,0.306a0.279,0.279,0,0,0,.33.25v0.128a0.669,0.669,0,0,0,.43.2,2.773,2.773,0,0,1,.555.576,3.66,3.66,0,0,0,.531.128v0.071a0.382,0.382,0,0,1,.381.121,5.008,5.008,0,0,0,1.561,0c0.035,0,.023-0.036.03-0.072,0.315,0.026.5-.084,0.831-0.05,0.033,0,.023-0.044.028-0.071a1.706,1.706,0,0,0,.4-0.053,0.908,0.908,0,0,0,.175-0.15,0.33,0.33,0,0,0,.325-0.123c0.189-.011.409,0.034,0.432-0.13,0.244,0.038.218-.2,0.457-0.177,0.028,0,.023-0.048.025-0.071a0.619,0.619,0,0,0,.25-0.049c0-.316.407-0.22,0.405-0.531a0.815,0.815,0,0,0,.277-0.047,1.344,1.344,0,0,1,.38-0.451c0.071-.016.213,0.045,0.178-0.082h0.579a1.232,1.232,0,0,0,.328.2,3.953,3.953,0,0,1-.052.957c-0.189-.014-0.083.264-0.276,0.248,0.034,0.269-.085.39-0.05,0.649h-0.1c0.046,0.288-.131.343-0.08,0.635h-0.1a3.093,3.093,0,0,0-.053.651h-0.1v0.382a0.231,0.231,0,0,0-.181.249,1.831,1.831,0,0,0-.251.124c0.044,0.159-.126.1-0.078,0.253a0.455,0.455,0,0,0-.326.33c-0.106-.035-0.115.034-0.1,0.126-0.152-.034-0.149.08-0.306,0.052-0.052,0-.007.108-0.018,0.144a0.688,0.688,0,0,0-.482.254c-0.136,0-.248.007-0.253,0.128a1.3,1.3,0,0,0-.757.375c-0.076.017-.214-0.046-0.18,0.082-0.349-.037-0.45.183-0.78,0.169-0.035,0-.025.046-0.028,0.075-0.411-.037-0.666.076-1.061,0.048-0.03,0-.023.051-0.025,0.078a7.807,7.807,0,0,0-1.01.051,0.072,0.072,0,0,0-.023.075H128.62V65.989a8.307,8.307,0,0,0-.91-0.051V65.86a4.858,4.858,0,0,1-.934-0.048,0.21,0.21,0,0,0-.253-0.124c-0.02-.135-0.172-0.128-0.331-0.12,0.037-.128-0.1-0.066-0.174-0.082a0.562,0.562,0,0,0-.432-0.206c0.021-.073-0.082-0.022-0.05-0.121-0.379.044-.34-0.329-0.7-0.3a1.116,1.116,0,0,0-.581-0.4,0.383,0.383,0,0,0-.331-0.3,3.489,3.489,0,0,0-.4-0.506,0.374,0.374,0,0,1-.256-0.248c-0.009-.035-0.064-0.026-0.1-0.026-0.041-.107.006-0.308-0.154-0.306a0.269,0.269,0,0,0-.179-0.326c-0.021-.108-0.007-0.259-0.15-0.252,0.058-.2-0.119-0.179-0.073-0.375-0.011-.036-0.064-0.023-0.1-0.027,0.037-.163-0.09-0.178-0.05-0.352a0.805,0.805,0,0,0-.2-0.146c0.051-.3-0.126-0.374-0.076-0.683-0.011-.033-0.059-0.019-0.1-0.021a5.429,5.429,0,0,1-.055-0.6c-0.005-.036-0.067-0.023-0.1-0.03-0.028-.105.075-0.345-0.074-0.33V57.185h0.074V56.607h0.1c-0.037-.247.078-0.347,0.055-0.572h0.1c0.023-.087-0.062-0.287.076-0.258V55.451c0.172,0.064.03-.182,0.2-0.123a4.1,4.1,0,0,1,.05-0.449h0.1v-0.26c0.124,0.039.062-.105,0.073-0.167h0.1a1.426,1.426,0,0,0,.048-0.286A0.891,0.891,0,0,1,123.113,54V53.792c0.074,0,.051-0.087.149-0.05-0.048-.151.127-0.1,0.076-0.249h0.1a2.34,2.34,0,0,0,.079-0.327,0.608,0.608,0,0,0,.4-0.45,1.864,1.864,0,0,1,.228-0.052c0.059,0,.011-0.108.027-0.156a5.47,5.47,0,0,1,.73-0.429c0.028,0,.019-0.048.025-0.077a0.449,0.449,0,0,0,.405-0.245h0.179a0.519,0.519,0,0,1,.381-0.245c0.03-.006.021-0.05,0.025-0.082a0.314,0.314,0,0,0,.326-0.124c0.168,0,.358.018,0.375-0.132a0.635,0.635,0,0,0,.482-0.194c0.491,0.053.654-.228,1.136-0.183,0.033,0,.023-0.045.028-0.072,0.42,0.019.7-.087,1.134-0.043,0.032-.007.023-0.046,0.028-0.078,0.491,0.025.9-.034,1.341-0.05a0.1,0.1,0,0,0,.023-0.084c0.705-.1,1.382.05,2.046-0.05,0.039-.028.025-0.11,0.126-0.074-0.035-.128.085-0.11,0.05-0.252a1.168,1.168,0,0,0,.281-0.206V49.746a0.742,0.742,0,0,0-.281-0.231c-0.039-.153.019-0.423-0.151-0.456-0.037-.105.08-0.378-0.074-0.376V48.256a1.216,1.216,0,0,0-.2-0.193,3.062,3.062,0,0,1-.048-0.559c-0.01-.035-0.064-0.021-0.106-0.023,0.014-.189-0.018-0.349-0.174-0.376,0.037-.218-0.078-0.289-0.051-0.509-0.007-.036-0.064-0.021-0.1-0.023,0.05-.274-0.126-0.324-0.073-0.6a0.117,0.117,0,0,0-.1-0.025,0.46,0.46,0,0,0-.253-0.505V45.2a0.93,0.93,0,0,1-.33-0.291h-0.3a7.373,7.373,0,0,0-.86.533,4.1,4.1,0,0,0-.985.428c-0.113.085-.095,0.29-0.329,0.249a0.457,0.457,0,0,0-.179.283,0.334,0.334,0,0,0-.328.119,0.322,0.322,0,0,0-.326.123c-0.15,0-.345-0.037-0.329.133-0.17,0-.356-0.018-0.379.123-0.126,0-.22.015-0.229,0.121a5.292,5.292,0,0,1-.733.258c-0.025,0-.018.047-0.023,0.078h-1.417a3.689,3.689,0,0,1-.426-0.207,2.189,2.189,0,0,1-.584-0.129c0.021-.126-0.17-0.057-0.149-0.195a3.261,3.261,0,0,1-.76-0.425,3.247,3.247,0,0,0-.4-0.508c-0.011-.039-0.064-0.023-0.1-0.025a2.672,2.672,0,0,1-.05-0.67c-0.01-.041-0.067-0.03-0.106-0.032V44.534h0.106a7.419,7.419,0,0,1,.05-1.077h0.1c-0.053-.208.12-0.189,0.073-0.372h0.1c0-.153,0-0.3.156-0.281a1.071,1.071,0,0,0,.071-0.307h0.1a1.831,1.831,0,0,1,.051-0.4h0.1c-0.048-.158.127-0.1,0.076-0.255a0.584,0.584,0,0,0,.354-0.252,3.261,3.261,0,0,1,.657-0.05V42.23a0.145,0.145,0,0,0,.1.024,0.412,0.412,0,0,0,.049.244,0.288,0.288,0,0,1,.328.184c0.606,0.034,1.1-.048,1.669-0.053,0.028,0,.021-0.046.023-0.078,0.349,0.045.544-.075,0.886-0.053,0.026,0,.021-0.045.024-0.075,0.149,0,.342.04,0.33-0.119,0.131,0,.257-0.011.276-0.126a0.183,0.183,0,0,0,.227-0.205A5.952,5.952,0,0,1,129,41.92c0.029,0,.018-0.041.025-0.073a1.945,1.945,0,0,0,1.132-.377,0.817,0.817,0,0,1,.532-0.377c-0.011-.087,0-0.155.1-0.123a8.215,8.215,0,0,0,0-1.711c-0.007-.036-0.065-0.02-0.1-0.022V39.007c-0.006-.036-0.059-0.022-0.1-0.027a1.93,1.93,0,0,0-.4-0.551c-0.053-.045-0.168-0.034-0.152-0.153h-0.659c-0.028,0-.016.05-0.023,0.073a4.539,4.539,0,0,0-.48.183,3.7,3.7,0,0,0-.351.194,4.353,4.353,0,0,1-.583.052,0.229,0.229,0,0,0-.175-0.247V38.075a0.234,0.234,0,0,0,.175-0.247h0.1c-0.032-.137.082-0.123,0.05-0.256h0.1c0-.067-0.023-0.16.076-0.125v-0.2c0.138-.007.271-0.016,0.255-0.178a0.165,0.165,0,0,0,.172-0.2,0.785,0.785,0,0,0,.406-0.325c0.274,0.05.223-.22,0.483-0.178a0.082,0.082,0,0,0,.023-0.074,0.62,0.62,0,0,0,.482-0.126m195.785,2.605a1.762,1.762,0,0,0,.18.686,4.006,4.006,0,0,0,1.435.144c0.064-.013.057,0.053,0.057,0.094a1.081,1.081,0,0,0,.723-0.094c1.47,0.033,2.781-.11,4.276-0.054,0.11,0.041.018-.1,0.1-0.09a3.786,3.786,0,0,0,.713-0.208c0.244-.366.82-0.388,0.986-0.834h0.178a1.3,1.3,0,0,1,1.386-.544,0.6,0.6,0,0,0,.443.155,1.166,1.166,0,0,0,.51.389,0.425,0.425,0,0,0,.385.356,3.175,3.175,0,0,0,.087.33h0.214a0.172,0.172,0,0,0,.174.211,0.271,0.271,0,0,0,.209.29,3.8,3.8,0,0,1,.267.75c0.114,0.022.075,0.041,0.128,0.147a0.35,0.35,0,0,0,.1.028,1.41,1.41,0,0,1-.395.98,0.339,0.339,0,0,0-.39.249c-1.638,0-3.376.083-5.209,0.058a0.253,0.253,0,0,1-.057.084h-3.86a0.5,0.5,0,0,0-.6,0c-1.941.074-3.734,0.02-5.778,0.055a0.832,0.832,0,0,1-.06.1c-2.1-.043-3.758-0.077-5.833,0a1.445,1.445,0,0,0-.807-0.1,0.26,0.26,0,0,1-.065.1h-0.353c-0.167.2-.567,0.167-0.512,0.587h-0.117v2.542c-0.019.083,0.142-.023,0.117,0.059v5.13c0.032,0.128-.065.048-0.117,0.051,0.044,0.5-.1.8-0.06,1.247,0.03,0.1-.066.057-0.119,0.067,0.064,0.55-.14.834-0.088,1.364,0.03,0.1-.073.06-0.123,0.066a11.019,11.019,0,0,0-.058,1.3c0.028,0.094-.064.051-0.122,0.064-0.055.169,0.122,0.556-.117,0.53V55.3a1.778,1.778,0,0,1-.388.656c-0.018.585-.222,0.97-0.27,1.516h-0.12a2.1,2.1,0,0,1-.184.694,1.247,1.247,0,0,0-.324.2,4.874,4.874,0,0,0-.059.535h-0.126c0.05,0.261-.152.268-0.088,0.54H312.02c0.046,0.366-.335.293-0.269,0.681a0.339,0.339,0,0,0-.181.06v0.238c-0.2-.073-0.034.226-0.237,0.155a0.427,0.427,0,0,1-.209.443v0.234a3.214,3.214,0,0,0-.4.393,1.128,1.128,0,0,1-.174.5h-0.206a0.377,0.377,0,0,1-.3.472v0.217c-0.133-.043-0.053.147-0.207,0.082a1.55,1.55,0,0,1-.179.448h-0.183c-0.023.08-.065,0.149-0.087,0.241a4.446,4.446,0,0,0-.662.358c-0.36.074-.351-0.226-0.563-0.3V62.687c-0.031-.089.056-0.054,0.117-0.067-0.011-.259-0.006-0.5.2-0.527,0.021-.192-0.009-0.43.188-0.448-0.066-.3.136-0.327,0.081-0.627h0.129c0.047-.174-0.129-0.553.114-0.534-0.042-.488.1-0.792,0.059-1.281-0.027-.089.07-0.057,0.129-0.06a4.993,4.993,0,0,1,.078-1.138h0.125c-0.044-.286.084-0.4,0.061-0.685h0.122a9.21,9.21,0,0,0,.087-1.305c-0.029-.094.065-0.058,0.117-0.062a13.754,13.754,0,0,1,.062-1.608c-0.036-.087.069-0.051,0.12-0.062a6.768,6.768,0,0,0,.087-1.058c-0.032-.089.065-0.055,0.126-0.062v-0.85c-0.032-.071.063-0.032,0.115-0.046,0.062-1.928.069-3.892,0.062-5.876-0.034-.087.069-0.052,0.115-0.055V45.323c0.019-.074-0.136.018-0.115-0.051V43.685c-0.034-.09.069-0.054,0.115-0.06-0.016-2.185.007-4.3,0.091-6.375-0.032-.09.07-0.048,0.123-0.057-0.148-.869.8-0.787,1.462-0.683-0.016.135,0.151,0.059,0.088,0.237a0.629,0.629,0,0,1,.3.067,1.28,1.28,0,0,1,.126.174,1.466,1.466,0,0,0,.267.05,0.28,0.28,0,0,0,.321.155c0.15,0.138.471,0.094,0.457,0.385a1.542,1.542,0,0,0,.239.063c0.029,0.184-.014.452,0.181,0.478a4.507,4.507,0,0,1,.088,1.109,0.3,0.3,0,0,1,.179.32,0.309,0.309,0,0,1,.388.237,14.1,14.1,0,0,0,1.947.059,3.63,3.63,0,0,0,1.281.08,0.325,0.325,0,0,1,.3-0.08c0.108-.045.019,0.094,0.092,0.08a6.084,6.084,0,0,0,1.793,0,0.8,0.8,0,0,1,.6-0.139,0.321,0.321,0,0,1,.062-0.089h0.567a0.9,0.9,0,0,0,.3-0.384h0.12V37.224c-0.009-.044-0.078-0.03-0.12-0.032a4.021,4.021,0,0,0-.092-0.662A1.913,1.913,0,0,0,321,36a0.924,0.924,0,0,0-.453-0.621c-0.041-.185.1-0.2,0.061-0.4a2.526,2.526,0,0,1,.476-0.2c0.037,0,.026-0.052.035-0.084a2.488,2.488,0,0,1,1.047,0c0.108-.052.021,0.095,0.09,0.084a8.339,8.339,0,0,1,1.26.06c0.05-.02.05,0.049,0.05,0.087a11.354,11.354,0,0,1,1.291.3c0.019,0.142.171,0.149,0.328,0.149a0.627,0.627,0,0,0,.389.3,0.913,0.913,0,0,0,.179.414v1.489a0.764,0.764,0,0,0,0,.781v0.38c0.013,0.045.078,0.027,0.121,0.033m-166.406-.239a0.327,0.327,0,0,0,.329.124v0.071c0.268-.046.241,0.217,0.5,0.182a0.653,0.653,0,0,0,.507.328c0.051,0.291.42,0.258,0.48,0.55,0.007,0.053.145-.015,0.1,0.1h0.182a0.858,0.858,0,0,1,.227.3h0.2a2.428,2.428,0,0,0,.329.326,5.559,5.559,0,0,1,.757.453v0.123c0.122,0,.218.019,0.228,0.126,0.222-.044.2,0.171,0.427,0.127a0.422,0.422,0,0,0,.33.327v0.1c0.161-.017.088,0.207,0.255,0.2a0.17,0.17,0,0,0,.175.205c0.023,0.108.009,0.252,0.151,0.245,0,0.068-.025.16,0.076,0.128,0.011,0.1-.046.252,0.1,0.2v1.331h-0.1v0.26c-0.1-.032-0.076.055-0.076,0.121h-0.1a0.353,0.353,0,0,1-.326.328c0.034,0.128-.087.112-0.053,0.25-0.177.016-.207,0.179-0.379,0.206v0.119c-0.069.009-.186-0.041-0.149,0.077a0.31,0.31,0,0,0-.328.128,0.338,0.338,0,0,0-.331.119c-0.45.041-1.35,0.2-1.516-.2-0.241.035-.275-0.15-0.5-0.127-0.01-.114-0.122-0.129-0.255-0.119-0.007-.112-0.1-0.132-0.225-0.131,0-.1-0.108-0.1-0.179-0.127a0.254,0.254,0,0,0-.251-0.249,0.915,0.915,0,0,0-.154-0.425c-0.006-.035-0.061-0.021-0.1-0.023a0.233,0.233,0,0,0-.179-0.256,3.349,3.349,0,0,1-.051-0.548c-0.009-.037-0.064-0.024-0.1-0.031a0.871,0.871,0,0,0-.078-0.582c-0.048-.172.111-0.554-0.1-0.572,0.037-.287-0.08-0.411-0.052-0.683a0.8,0.8,0,0,1-.276-0.4h-0.154c0.014-.085.005-0.16-0.1-0.126a0.271,0.271,0,0,0-.175-0.329,0.228,0.228,0,0,0-.23-0.247c0.012-.087,0-0.16-0.1-0.13a0.449,0.449,0,0,0-.056-0.2c-0.358.025-.337-0.335-0.7-0.3,0.032-.1-0.085-0.055-0.051-0.155a3.385,3.385,0,0,1-.432-0.246,0.266,0.266,0,0,0-.277-0.3,1.252,1.252,0,0,1-.049-0.4,0.833,0.833,0,0,1,.4-0.176c0.028,0,.021-0.048.026-0.071a13.144,13.144,0,0,1,2.4,0m14.347,0.325a3.89,3.89,0,0,1,.909.123,1.473,1.473,0,0,1,.278.2,1.868,1.868,0,0,1,.379.053c0.009,0.1.11,0.1,0.2,0.121a0.464,0.464,0,0,0,.329.254,0.605,0.605,0,0,0,.151.279h0.177a0.3,0.3,0,0,0,.227.3c-0.011.084,0,.153,0.1,0.125,0.016,0.1-.069.3,0.1,0.251a7.482,7.482,0,0,1,0,1.611h-0.1V42.55h-0.1v0.325c-0.128-.037-0.059.134-0.078,0.21a0.414,0.414,0,0,0-.149.372,2.178,2.178,0,0,0-.328.377v0.2h-0.1c0,0.063.023,0.156-.078,0.124a0.878,0.878,0,0,1-.079.3c-0.128-.023-0.215,0-0.174.149a0.959,0.959,0,0,1-.4.18,0.517,0.517,0,0,0-.078.325,1.487,1.487,0,0,0-.278.131,0.6,0.6,0,0,1-.048.2,1.412,1.412,0,0,0-.354.179c-0.069.15-.284,0.167-0.355,0.327a0.4,0.4,0,0,0-.228.052v0.119c-0.117-.012-0.131.069-0.151,0.156a0.726,0.726,0,0,0-.43.3,0.292,0.292,0,0,0-.326.206,0.832,0.832,0,0,0-.429.173V47.1a0.932,0.932,0,0,1-.255.049,0.51,0.51,0,0,1-.377.247c-0.032,0-.023.046-0.029,0.08a0.42,0.42,0,0,0-.253.053c-0.165.211-.448,0.3-0.6,0.53-0.154-.034-0.154.087-0.3,0.051a1.2,1.2,0,0,1-.579.379,1.837,1.837,0,0,1-.356.268,8.487,8.487,0,0,0-.959.557c-0.028,0-.023.048-0.026,0.076-0.071.014-.211-0.045-0.174,0.075a4.529,4.529,0,0,0-.657.3c-0.023.078-.135,0.069-0.106,0.192-0.082.041-.236,0.014-0.247,0.128a0.367,0.367,0,0,0-.308.133c0.009,0-.157.1-0.174,0.119a0.122,0.122,0,0,1-.1.074,0.249,0.249,0,0,0-.071.134,0.382,0.382,0,0,0-.156.05,0.294,0.294,0,0,1-.248.121c-0.03,0-.026.041-0.028,0.072a2.229,2.229,0,0,0-.657.377V51.3a0.312,0.312,0,0,0-.33.206,1.346,1.346,0,0,0-.528.245c0.048,0.228-.207.169-0.228,0.322-0.151-.034-0.151.086-0.3,0.053-0.053,0-.012.093-0.023,0.134-0.069-.013-0.133-0.013-0.1.073-0.106-.018-0.189,0-0.151.116a0.818,0.818,0,0,0-.178.053v0.156c-0.273.091-.39,0.333-0.654,0.427v0.129c-0.163-.034-0.087.162-0.257,0.121v0.153c-0.1-.03-0.115.039-0.1,0.128a0.228,0.228,0,0,0-.227.249h-0.1c0.048,0.16-.124.094-0.076,0.249-0.131-.015-0.168.069-0.151,0.2h-0.1c0,0.068.021,0.155-.075,0.13v0.167h-0.1c0.03,0.141-.085.119-0.051,0.26-0.142-.007-0.14.122-0.277,0.115V55.2h-0.1a1.214,1.214,0,0,0-.05.327h-0.1c0,0.069.024,0.167-.078,0.131v0.2h-0.1a18.027,18.027,0,0,0,0,2.393c0.007,0.034.06,0.021,0.1,0.023,0,0.194.024,0.354,0.182,0.377,0.023,0.114.007,0.255,0.152,0.251-0.023.206,0.149,0.217,0.277,0.277a0.7,0.7,0,0,0,.48.55c-0.067.219,0.17,0.137,0.175,0.275,0.126,0,.218.018,0.227,0.133,0.092,0.018.195,0.02,0.2,0.126a0.377,0.377,0,0,1,.326.126c0.157-.005.31-0.005,0.329,0.118a11.048,11.048,0,0,0,1.487.258v0.076h1.9c0.03-.007.023-0.047,0.025-0.076a2.888,2.888,0,0,0,.632-0.058c0.032,0,.023-0.036.025-0.071,0.09-.026.287,0.068,0.255-0.077a3.438,3.438,0,0,0,.482-0.053c0.028,0,.021-0.041.023-0.072a0.449,0.449,0,0,0,.427-0.124,3.665,3.665,0,0,0,1.314-.377c0.011-.089.094-0.112,0.1-0.2a0.877,0.877,0,0,0,.407-0.176,0.167,0.167,0,0,1,.172-0.2c-0.046-.158.126-0.1,0.078-0.247a0.142,0.142,0,0,0,.151-0.132c0.087-.023.285,0.066,0.253-0.074a1.679,1.679,0,0,1,.606,0c0.021,0.087.037,0.165,0.152,0.155,0,0.069-.023.153,0.075,0.122V59.6c-0.151-.017-0.043.224-0.075,0.327-0.14-.007-0.129.137-0.152,0.254h-0.1c0,0.069.025,0.158-.074,0.123v0.2a0.31,0.31,0,0,0-.155.053v0.206c-0.189-.016-0.083.262-0.276,0.249v0.206a1.266,1.266,0,0,1-.253.118,3.124,3.124,0,0,1-.229.448,1.081,1.081,0,0,0-.172.06c0,0.069.023,0.153-.081,0.124v0.2c-0.113-.027-0.039.128-0.174,0.077,0.048,0.153-.124.094-0.078,0.248a1.081,1.081,0,0,1-.15.052v0.126c-0.1-.032-0.115.042-0.1,0.123-0.064,0-.129-0.009-0.1.078A0.736,0.736,0,0,0,169.8,63a0.227,0.227,0,0,1-.227.247c0.011,0.087.006,0.16-.1,0.13a1.5,1.5,0,0,1-.578.524,1.322,1.322,0,0,0-.531.178c-0.029,0-.021.051-0.027,0.078a0.4,0.4,0,0,0-.379.125,0.357,0.357,0,0,0-.326.126,0.379,0.379,0,0,0-.329.126c-0.317-.043-0.475.075-0.785,0.052-0.03,0-.02.042-0.023,0.074-0.089.027-.305-0.069-0.275,0.07a13.179,13.179,0,0,1-2.48,0c0.016-.144-0.225-0.036-0.329-0.07V64.584c-0.337.029-.519-0.086-0.856-0.052a2.939,2.939,0,0,1-.5-0.206c-0.154.006-.327,0.023-0.328-0.126a3.3,3.3,0,0,0-.334-0.045,1,1,0,0,1-.149-0.2,5.121,5.121,0,0,1-.53-0.129,3.4,3.4,0,0,0-.329-0.328c-0.323.007-.319-0.313-0.656-0.3a0.387,0.387,0,0,0-.251-0.2V62.871h-0.177a0.386,0.386,0,0,0-.328-0.379,0.231,0.231,0,0,0-.254-0.248,1.148,1.148,0,0,0-.228-0.507,0.627,0.627,0,0,0-.177-0.076c0.012-.087,0-0.153-0.1-0.124a0.247,0.247,0,0,0-.23-0.321c0.011-.1.007-0.158-0.1-0.128-0.057-.11.01-0.334-0.155-0.327V60.58a0.82,0.82,0,0,0-.178-0.077c-0.009-.091.046-0.238-0.1-0.2-0.051-.145.018-0.407-0.154-0.428a0.266,0.266,0,0,0-.179-0.328c-0.051-.1.016-0.332-0.149-0.327-0.026-.082.066-0.279-0.079-0.251-0.03-.108.085-0.362-0.1-0.325-0.048-.14.1-0.468-0.1-0.449a28.613,28.613,0,0,1,0-3.5h0.1V54.374h0.1V54.118c0.131,0.035.062-.12,0.079-0.2h0.1c-0.035-.247.082-0.334,0.048-0.581h0.1v-0.3c0.126,0.037.057-.127,0.076-0.2h0.1a3.652,3.652,0,0,0,.051-0.45h0.1V52.205c0.1,0.036.074-.06,0.074-0.128h0.1V51.885h0.1a1.221,1.221,0,0,1,.055-0.329h0.1c-0.046-.155.124-0.1,0.076-0.252h0.1c0.028-.118.009-0.257,0.154-0.25V50.8c0.094-.069.251-0.072,0.23-0.243h0.1c-0.048-.162.125-0.1,0.077-0.254,0.123,0.031.105-.059,0.1-0.15a0.843,0.843,0,0,0,.255-0.055c-0.048-.158.124-0.091,0.071-0.245a0.456,0.456,0,0,0,.333-0.333,0.118,0.118,0,0,0,.15-0.121,0.416,0.416,0,0,0,.431-0.334,0.487,0.487,0,0,0,.251-0.041c-0.044-.16.124-0.1,0.075-0.258,0.322-.146.506-0.437,0.834-0.574a0.76,0.76,0,0,0,.078-0.124c0.351,0.019.317-.354,0.682-0.324a0.258,0.258,0,0,0,.076-0.206,2.248,2.248,0,0,0,.5-0.173V47.229c0.115,0.031.115-.071,0.151-0.124h0.152c0.055,0,.009-0.115.023-0.152,0.092-.013.195-0.02,0.2-0.123a2.107,2.107,0,0,0,.879-0.425V46.277a0.36,0.36,0,0,0,.258-0.2h0.149a1.349,1.349,0,0,0,.682-0.452c0.1,0,.172-0.028.174-0.129a1.727,1.727,0,0,0,.712-0.324c0.056,0,.009-0.089.028-0.128a0.267,0.267,0,0,0,.253-0.178h0.149c0.027,0,.023-0.041.025-0.072,0.152,0.035.152-.087,0.3-0.052,0.023-.139.264-0.059,0.284-0.206h0.147a7.561,7.561,0,0,0,.682-0.574,0.369,0.369,0,0,0,.331-0.126,0.382,0.382,0,0,0,.429-0.206c0.124,0,.236-0.011.251-0.119,0.266,0.048.215-.226,0.482-0.178,0.03,0,.021-0.048.025-0.08a0.362,0.362,0,0,0,.328-0.121,5.238,5.238,0,0,0,.558-0.255,0.267,0.267,0,0,1,.251-0.124,0.226,0.226,0,0,1,.252-0.123c0.03,0,.021-0.046.023-0.078,0.154,0.032.154-.087,0.308-0.053,0.02-.079.135-0.061,0.1-0.194,0.206-.022.227-0.228,0.429-0.253a0.452,0.452,0,0,1,.328-0.327V41.594a0.611,0.611,0,0,1,.175-0.05c-0.03-.133.09-0.131,0.053-0.274h0.1c0.011-.075-0.046-0.213.075-0.179V40.866c-0.077-.014-0.089-0.1-0.075-0.2a1.051,1.051,0,0,0-.482-0.276V40.315a0.889,0.889,0,0,0-.758.071h-0.427a0.516,0.516,0,0,0-.152-0.222v-0.05a0.7,0.7,0,0,0,.152-0.428,2.163,2.163,0,0,0,.4-0.258c0.025-.009.027-0.032,0.025-0.071,0.126,0.009.225-.016,0.229-0.121a0.461,0.461,0,0,0,.432-0.133,0.667,0.667,0,0,0,.48-0.194c0.239,0.03.328-.085,0.581-0.052a0.093,0.093,0,0,0,.023-0.078,3.127,3.127,0,0,1,1.086,0v0.078ZM237,43.762c-0.065-.016.013,0.113-0.079,0.072h-2.245c-0.09-.037-0.018.091-0.076,0.08h-3.867a1.565,1.565,0,0,0-.374-0.212c-0.037-.336-0.354-0.4-0.385-0.748a0.315,0.315,0,0,1-.175-0.3,1.38,1.38,0,0,1-.253-0.283v-0.78c0.172-.141.446-0.178,0.611-0.324,0.847-.087,2.018-0.053,3.077-0.053a17.591,17.591,0,0,1,2.856.053,4.7,4.7,0,0,0,1.061,0c0.4-.041.792-0.024,1.112-0.053a4.069,4.069,0,0,1,.782,0c0.723,0.068,1.454-.062,2.175,0,0.8,0.078,1.843-.092,2.826,0a6.57,6.57,0,0,0,1.314,0,4.206,4.206,0,0,1,.631,0c0.992,0.093,2.032-.039,3.159,0,0.09,0.038.01-.08,0.074-0.076h0.712a1.953,1.953,0,0,0,.528-0.3h0.2c0.007-.3.379-0.227,0.383-0.525a0.715,0.715,0,0,0,.43-0.377,2.284,2.284,0,0,1,.985-0.252,1.079,1.079,0,0,0,.6.327c-0.018.165,0.1,0.185,0.258,0.176a2.018,2.018,0,0,0,.477.377h0.18c-0.028.08,0.034,0.078,0.1,0.074a0.251,0.251,0,0,0,.052.175,1.422,1.422,0,0,0,.609.327,1.124,1.124,0,0,1,.15.2,0.672,0.672,0,0,1,.277.072,0.417,0.417,0,0,0,.331.307c0.069,0.284.39,0.327,0.476,0.6a1.039,1.039,0,0,0-.049.428c-0.149-.009-0.1.187-0.253,0.174-0.055.008-.011,0.114-0.025,0.16a3.31,3.31,0,0,1-1.137.425,0.618,0.618,0,0,0-.28.192,0.476,0.476,0,0,0-.351.132c-0.144.023-.4-0.064-0.431,0.08-1.153-.032-2.165.085-3.335,0.046-0.092-.035-0.016.084-0.075,0.075-1.689.051-3.093-.169-4.772-0.121-0.091.035-.016-0.091-0.078-0.08h-2c-0.09.041-.014-0.089-0.078-0.072h-2.019c-0.087-.046-0.015.084-0.076,0.072h-1.341a0.358,0.358,0,0,0-.474,0,3.274,3.274,0,0,0-1.14.08c-0.078.062-.073-0.062-0.128-0.08A2.6,2.6,0,0,1,237,43.762m48.654-2.491c0,0.091-.021.187,0.1,0.145-0.035.229,0.262,0.129,0.225,0.36a1.157,1.157,0,0,0,.429.2c-0.023.085,0.035,0.08,0.1,0.077a0.17,0.17,0,0,0,.174.2c0.023,0.108.011,0.257,0.151,0.244a0.234,0.234,0,0,0,.175.255,0.6,0.6,0,0,0,.431.379,0.471,0.471,0,0,0,.326.252c0.028,0.114.015,0.259,0.157,0.247-0.021.171,0.032,0.279,0.179,0.286,0.009,0.172-.019.4,0.144,0.428,0.03,0.092-.069.32,0.1,0.27a3.793,3.793,0,0,0,.075.531c0.007,0.041.063,0.022,0.1,0.027v0.274h-0.1v0.375c-0.138-.032-0.047.174-0.075,0.256-0.173-.064-0.028.183-0.2,0.12,0.031,0.14-.087.122-0.047,0.259h-0.154c-0.021.135-.257,0.055-0.278,0.192a0.327,0.327,0,0,0-.331.133,0.5,0.5,0,0,0-.33.05c0-.109-0.19-0.027-0.278-0.05a1.721,1.721,0,0,0-.553-0.453c-0.01-.094.048-0.249-0.1-0.205,0-.08.035-0.217-0.1-0.171a4.387,4.387,0,0,0-.053-0.558c0-.034-0.063-0.02-0.1-0.025,0.058-.352-0.115-0.471-0.073-0.8-0.01-.037-0.067-0.023-0.1-0.028,0.036-.206-0.081-0.265-0.054-0.475,0-.037-0.059-0.021-0.1-0.024-0.021-.075.05-0.238-0.076-0.2-0.023-.1.065-0.3-0.1-0.256-0.017-.178.019-0.416-0.15-0.448a0.264,0.264,0,0,0-.175-0.327,3.032,3.032,0,0,1-.157-0.4c0-.032-0.059-0.023-0.1-0.025-0.026-.089.068-0.3-0.071-0.274-0.026-.085.064-0.282-0.076-0.254V41.218a0.525,0.525,0,0,0,.147-0.327,0.575,0.575,0,0,1,.762.3c0.046,0.025.1,0.05,0.15,0.078m-80.812.576V41.92a2.965,2.965,0,0,1,.605.052,0.424,0.424,0,0,0,.405.206,1.086,1.086,0,0,0,.657.373,1.172,1.172,0,0,1,.25.3,0.219,0.219,0,0,0,.181.072,0.153,0.153,0,0,0,.177.206,1.562,1.562,0,0,0,.147.379h0.179c0.023,0.108.007,0.254,0.151,0.252-0.045.174,0.127,0.13,0.074,0.3a0.934,0.934,0,0,0,.257.233c0,0.087-.039.208,0.095,0.171a0.155,0.155,0,0,0,.183.2c0,0.121.023,0.212,0.149,0.2a0.412,0.412,0,0,0,.177.384c0,0.165-.016.367,0.149,0.375a0.271,0.271,0,0,0,.179.327c-0.011.092,0,.149,0.1,0.126,0.071,0.1-.028.379,0.146,0.379-0.048.234,0.129,0.243,0.079,0.478a0.125,0.125,0,0,0,.1.02,1.84,1.84,0,0,0,.048.428c0.09,0,.085.1,0.177,0.1,0,0.089-.032.222,0.1,0.176a1.833,1.833,0,0,1,.051.625c0.009,0.039.059,0.023,0.1,0.025a3.679,3.679,0,0,0,.078.736,0.112,0.112,0,0,0,.1.018c0.035,0.112-.08.378,0.1,0.334-0.03.315,0.087,0.48,0.052,0.806,0,0.035.058,0.024,0.1,0.026a0.824,0.824,0,0,0,.08.569c0.046,0.16-.107.512,0.1,0.509a24,24,0,0,1,0,3.262h-0.1v0.382c-0.131-.032-0.059.128-0.08,0.2h-0.1c0.033,0.219-.087.279-0.052,0.507h-0.1v0.327h-0.1c0.05,0.32-.129.422-0.078,0.747h-0.1a1.264,1.264,0,0,1-.051.334h-0.1a0.232,0.232,0,0,1-.177.251c0.028,0.192-.085.245-0.048,0.453h-0.1v0.249c-0.118-.038-0.063.108-0.079,0.181h-0.094a1.523,1.523,0,0,1-.052.323c-0.17-.062-0.032.19-0.2,0.126v0.2c-0.1-.032-0.079.055-0.079,0.124h-0.1a1.088,1.088,0,0,0-.053.379h-0.1v0.2a0.491,0.491,0,0,1-.181.053c0,0.118-.023.21-0.149,0.205,0.048,0.153-.122.092-0.08,0.245-0.1-.03-0.111.035-0.095,0.131-0.129-.009-0.153.087-0.153,0.2-0.106-.028-0.115.035-0.1,0.118a0.55,0.55,0,0,1-.174.053c0.036,0.148-.081.145-0.051,0.282a0.409,0.409,0,0,0-.326.251,0.551,0.551,0,0,0-.429.374,3.7,3.7,0,0,1-.432.249v0.13h-0.128a3.5,3.5,0,0,0-.453.4c-0.154-.02-0.25.016-0.228,0.174-0.2.027-.231,0.22-0.429,0.252a0.268,0.268,0,0,1-.305.252,0.432,0.432,0,0,1-.324.2c-0.032.005-.023,0.048-0.027,0.074-0.15.023-.347-0.005-0.331,0.181a0.484,0.484,0,0,0-.429.249h-0.251c-0.013.119-.172,0.085-0.176,0.2h-0.157a0.942,0.942,0,0,1-.654.376c-0.028,0-.019.048-0.025,0.079a0.464,0.464,0,0,0-.43.126,0.439,0.439,0,0,0-.4.126,1.074,1.074,0,0,0-.735.2c-0.213-.03-0.282.087-0.5,0.053-0.032,0-.023.048-0.028,0.078a3.881,3.881,0,0,1-.53.045,0.084,0.084,0,0,0-.025.078c-0.23-.028-0.317.089-0.554,0.052-0.032,0-.023.046-0.025,0.076a43.2,43.2,0,0,1-4.45,0V65.035a0.736,0.736,0,0,1-.48-0.176,2.4,2.4,0,0,1,.053-0.453A0.4,0.4,0,0,0,194.5,64.2a0.812,0.812,0,0,0,.253-0.046c-0.056-.147.093-0.093,0.077-0.2a8.357,8.357,0,0,0,1.567-.5c0.006-.1.089-0.114,0.1-0.206,0.152,0.007.319,0.022,0.329-.124a2.064,2.064,0,0,1,.4-0.052,0.246,0.246,0,0,0,.073-0.148,1.292,1.292,0,0,0,.4-0.05,3.437,3.437,0,0,0,.53-0.453c0.262,0.032.251-.208,0.506-0.174a0.692,0.692,0,0,1,.482-0.326c0.03,0,.02-0.048.023-0.076,0.268,0.047.216-.224,0.48-0.181a1.7,1.7,0,0,1,.431-0.327c0.12-.2.4-0.237,0.508-0.448a4.648,4.648,0,0,0,.427-0.255c-0.039-.2.19-0.134,0.151-0.326a0.264,0.264,0,0,0,.329-0.254,0.348,0.348,0,0,0,.328-0.327H202V59.549c0.1,0.035.078-.057,0.08-0.12h0.1c-0.032-.137.085-0.119,0.05-0.254a1.768,1.768,0,0,1,.278-0.2c-0.032-.138.085-0.119,0.051-0.252,0.142,0.007.14-.123,0.28-0.123V58.391a1.283,1.283,0,0,1,.25-0.192,0.248,0.248,0,0,1,.177-0.26c-0.03-.164.09-0.188,0.055-0.375h0.1v-0.2c0.145,0.041.007-.2,0.177-0.128a1.178,1.178,0,0,1,.053-0.377h0.1v-0.18h0.1a1.711,1.711,0,0,1,.078-0.275h0.1a1.127,1.127,0,0,0,.051-0.37h0.1c-0.055-.292.121-0.349,0.073-0.639h0.1c-0.026-.229.087-0.328,0.052-0.567h0.1v-0.59h0.078V52.96h0.1V50.875a0.105,0.105,0,0,0-.1-0.027V50.123c0-.03-0.048-0.02-0.078-0.03V49.344c-0.007-.035-0.062-0.024-0.1-0.026a4.48,4.48,0,0,0-.052-0.66,0.118,0.118,0,0,0-.1-0.023,4.491,4.491,0,0,0-.073-0.681,0.129,0.129,0,0,0-.1-0.025,0.71,0.71,0,0,0-.051-0.242,1.3,1.3,0,0,0-.376-0.207,0.41,0.41,0,0,0-.327-0.327,0.534,0.534,0,0,0-.562-0.374V46.7a8.566,8.566,0,0,0-1.816,0c-0.033.007-.023,0.05-0.026,0.082a2.4,2.4,0,0,0-.682.174V47.1c-0.151-.035-0.151.087-0.3,0.049a1.78,1.78,0,0,0-.073.207,4.718,4.718,0,0,0-.685.173,0.732,0.732,0,0,0-.252.321c-0.111-.019-0.186,0-0.152.129a0.677,0.677,0,0,1-.353.131c-0.028,0-.021.045-0.023,0.073-0.248-.032-0.221.2-0.457,0.172a1.1,1.1,0,0,1-.356.276v0.126c-0.2-.006-0.333.056-0.326,0.258a0.323,0.323,0,0,0-.329.118,0.563,0.563,0,0,0-.5.257c-0.071.014-.211-0.045-0.177,0.075a1.679,1.679,0,0,0-.557.174c-0.095.193-.441,0.135-0.529,0.323a0.983,0.983,0,0,0-.507.128,12.872,12.872,0,0,1-1.993,0,0.56,0.56,0,0,0-.406-0.128,1.732,1.732,0,0,0-.531-0.323c0.028-.161-0.076-0.189-0.225-0.174,0.034-.107-0.085-0.066-0.154-0.075,0.012-.092,0-0.16-0.1-0.128a0.277,0.277,0,0,0-.252-0.247,0.173,0.173,0,0,0-.175-0.207c0-.068.023-0.164-0.078-0.129,0.023-.151-0.021-0.242-0.152-0.242,0.015-.1,0-0.167-0.1-0.135a1.617,1.617,0,0,0-.23-0.548c-0.005-.033-0.062-0.017-0.1-0.019-0.021-.1.069-0.311-0.1-0.259a11.556,11.556,0,0,1,0-1.986h0.1V45.247c0.17,0.062.034-.174,0.179-0.13V44.911a0.276,0.276,0,0,0,.154-0.3,0.875,0.875,0,0,0,.25-0.149V44.292c0.1,0.028.076-.064,0.078-0.132a0.17,0.17,0,0,0,.175-0.2c0.14,0.016.1-.147,0.252-0.126-0.011-.089,0-0.157.1-0.132-0.016-.3.384-0.2,0.379-0.5A1.658,1.658,0,0,1,192,43.085a0.381,0.381,0,0,1,.457-0.333c0.016-.146.278-0.055,0.3-0.2h0.377a0.562,0.562,0,0,0,.277.2v0.379c-0.117.1-.342,0.091-0.326,0.327h-0.1c0,0.067.023,0.154-.078,0.122v0.335h-0.1v0.595c0.006,0.034.061,0.023,0.1,0.025,0.018,0.077-.05.242,0.078,0.205v0.224a1,1,0,0,0,.427.329c-0.027.183,0.1,0.2,0.253,0.2a0.147,0.147,0,0,0,.179.129v0.114a1.761,1.761,0,0,0,.579.135v0.078c0.08-.023.262,0.06,0.227-0.078a3.448,3.448,0,0,0,.482-0.053,1.324,1.324,0,0,1,1.162-.375c0.028,0,.018-0.05.023-0.077a0.314,0.314,0,0,0,.253-0.074,0.2,0.2,0,0,0,.075-0.124c0.085-.059.228,0.014,0.182-0.18h0.1c-0.011-.318.421-0.2,0.478-0.455a0.265,0.265,0,0,0,.329-0.243c0.188-.069.317-0.2,0.5-0.256V43.915a1.009,1.009,0,0,0,.582-0.4,0.283,0.283,0,0,0,.33-0.178,0.3,0.3,0,0,0,.328-0.2,0.687,0.687,0,0,0,.382-0.124V42.875h0.124a2.634,2.634,0,0,0,.353-0.325,2.935,2.935,0,0,0,.733-0.176c0.011-.138.239-0.067,0.254-0.2,0.07-.016.212,0.043,0.175-0.076,0.315,0.017.391-.2,0.708-0.181,0.032,0,.022-0.041.024-0.073a16.464,16.464,0,0,1,2.6,0m43.981,2.893c0.21-.009.367,0.034,0.373,0.224a0.126,0.126,0,0,0,.107.025,0.249,0.249,0,0,0,.176.258c0.023,0.1.01,0.255,0.15,0.247v0.224c0.225,0.1.273,0.384,0.506,0.476-0.011.089,0,.159,0.1,0.132a0.225,0.225,0,0,0,.229.247v0.176a0.842,0.842,0,0,0,.2.154c0,0.115.023,0.206,0.156,0.2a0.686,0.686,0,0,0,.405.376c-0.014.089-.008,0.158,0.1,0.127v0.834a0.232,0.232,0,0,0-.179.242,1.38,1.38,0,0,0-.427.336c-0.124,0-.239.009-0.253,0.118a0.449,0.449,0,0,0-.409.128,0.457,0.457,0,0,0-.426.128c-0.129.041-.423-0.085-0.433,0.075-0.153,0-.385-0.052-0.373.124a0.889,0.889,0,0,0-.684.372c-0.131,0-.244.007-0.254,0.128a0.953,0.953,0,0,0-.58.205c-0.207-.035-0.259.069-0.455,0.046-0.027,0-.021.045-0.023,0.074-0.138,0-.257.013-0.278,0.134-0.294-.025-0.34.19-0.631,0.171-0.034.151-.326,0.041-0.356,0.2a3.47,3.47,0,0,1-.5.053c-0.033,0-.023.045-0.027,0.076-0.079.027-.262-0.059-0.227,0.078a7.66,7.66,0,0,0-.862.3c0,0.128-.02.206-0.147,0.2v0.354a0.127,0.127,0,0,0,.1.017,1.308,1.308,0,0,1,.051.315c0.147,0.02.087,0.226,0.28,0.192a0.267,0.267,0,0,0,.253.289,1.308,1.308,0,0,0,.078.217c0.16-.009.092,0.214,0.251,0.206a0.747,0.747,0,0,0,.4.523c0,0.087-.033.221,0.1,0.178a0.406,0.406,0,0,0,.047.2,1.486,1.486,0,0,1,.379.2c0.024,0.114.01,0.257,0.152,0.245a0.15,0.15,0,0,0,.177.183,0.436,0.436,0,0,0,.334.327c-0.014.087-.01,0.16,0.1,0.123a0.414,0.414,0,0,0,.053.2c0.32,0.1.453,0.392,0.756,0.507a0.171,0.171,0,0,0,.179.206c-0.051.183,0.16,0.1,0.152,0.246a0.481,0.481,0,0,1,.249.05,0.415,0.415,0,0,0,.41.325,0.614,0.614,0,0,0,.427.379,3.691,3.691,0,0,0,.474.531,2.832,2.832,0,0,1,.336.05c-0.028.086,0.037,0.086,0.1,0.077-0.022.169,0.133,0.169,0.279,0.169a0.121,0.121,0,0,0,.147.132V58.2a0.358,0.358,0,0,1,.333.146,5.963,5.963,0,0,1,.66.3c0.015,0.116.139,0.132,0.275,0.126-0.045.189,0.236,0.043,0.225,0.2H251.8a2.531,2.531,0,0,1,.327.326c0.162-.036.174,0.082,0.33,0.053a1.13,1.13,0,0,0,.276.2c0.215-.032.27,0.085,0.476,0.053,0.107,0.16.419,0.1,0.511,0.276a0.378,0.378,0,0,1,.348.122,0.317,0.317,0,0,1,.382.182h0.281a2.473,2.473,0,0,0,.482.2,1.52,1.52,0,0,1,.629.045,2.9,2.9,0,0,1,.856-0.045c0.031,0,.021-0.046.025-0.078h0.607a0.8,0.8,0,0,0,.33.2,0.95,0.95,0,0,1,0,.508h-0.1v0.254c-0.115-.034-0.044.123-0.175,0.071a0.516,0.516,0,0,1-.052.2,0.445,0.445,0,0,0-.326.245,0.534,0.534,0,0,0-.432.384,0.852,0.852,0,0,0-.5.452c-0.166-.041-0.095.16-0.253,0.124v0.128a0.656,0.656,0,0,0-.177.05v0.148h-0.1c0.035,0.135-.082.121-0.048,0.254a0.584,0.584,0,0,0-.179.053V63.5a2.257,2.257,0,0,1-.253.129v0.123c-0.062-.009-0.092.013-0.073,0.075-0.207-.08-0.09.169-0.252,0.13v0.123c-0.069-.009-0.129-0.009-0.1.078-0.264-.045-0.214.217-0.478,0.172-0.035.007-.023,0.045-0.027,0.08a7.308,7.308,0,0,1-1.718,0c0.025-.142-0.188-0.05-0.277-0.08,0.017-.075-0.088-0.025-0.049-0.126H251.8a0.2,0.2,0,0,1-.053-0.174,6.667,6.667,0,0,1-1.184-.448c0.023-.087-0.04-0.087-0.1-0.083,0.058-.191-0.181-0.105-0.179-0.251-0.253.037-.22-0.213-0.482-0.176a0.3,0.3,0,0,0-.324-0.2c0-.1-0.107-0.092-0.176-0.128a0.3,0.3,0,0,0-.253-0.252c0.053-.142-0.1-0.092-0.078-0.2h-0.149V62.189c-0.338-.186-0.574-0.48-0.938-0.651a1.623,1.623,0,0,0-.073-0.273h-0.176a0.141,0.141,0,0,0-.152-0.176,0.291,0.291,0,0,0-.276-0.252,1.274,1.274,0,0,0-.482-0.407c0.018-.138-0.069-0.164-0.177-0.171a0.3,0.3,0,0,0-.252-0.33,0.888,0.888,0,0,0-.078-0.326,0.829,0.829,0,0,1-.251-0.053,2.28,2.28,0,0,0-.23-0.349,1.712,1.712,0,0,0-.379-0.3c0.031-.137-0.084-0.132-0.047-0.274a2.365,2.365,0,0,0-.427-0.354,0.463,0.463,0,0,0-.331-0.38,0.271,0.271,0,0,0-.181-0.326c0.016-.085.007-0.153-0.1-0.124,0-.116-0.025-0.21-0.154-0.2a0.391,0.391,0,0,0-.179-0.377c-0.02-.116-0.007-0.258-0.147-0.254a0.245,0.245,0,0,0-.181-0.252,2,2,0,0,1-.049-0.3,0.468,0.468,0,0,0-.174-0.075c0.012-.092,0-0.167-0.1-0.131-0.019-.073.05-0.236-0.076-0.2,0.011-.2-0.019-0.353-0.174-0.375a0.351,0.351,0,0,0-.23-0.334c0.013-.078,0-0.154-0.1-0.118a0.284,0.284,0,0,0-.152-0.263,0.278,0.278,0,0,0-.174-0.327c-0.021-.072.05-0.224-0.078-0.19a0.253,0.253,0,0,0-.175-0.308,0.24,0.24,0,0,0-.179-0.249c-0.057-.128.023-0.388-0.152-0.4,0.044-.3-0.27-0.253-0.227-0.557-0.007-.035-0.062-0.023-0.1-0.026a0.411,0.411,0,0,0-.182-0.376c0-.089.036-0.209-0.1-0.169,0.037-.184-0.08-0.209-0.05-0.382a0.612,0.612,0,0,0-.28-0.2c-0.046-.071-0.007-0.228-0.147-0.205-0.018-.065.052-0.229-0.078-0.194-0.051-.172.11-0.549-0.1-0.56-0.012-.179.022-0.416-0.15-0.453-0.032-.091.071-0.338-0.078-0.323-0.05-.173.111-0.569-0.1-0.583-0.016-.086.067-0.291-0.1-0.247-0.052-.149.027-0.425-0.147-0.454a0.4,0.4,0,0,0-.181-0.43V47.607h0.1V47.4c0.071-.027.179-0.02,0.176-0.118,0.178-.041.14,0.118,0.331,0.078-0.043.141,0.09,0.12,0.15,0.173v0.176c0.208,0.069.3,0.272,0.507,0.354-0.014.089-.007,0.149,0.1,0.124,0.012,0.137,0,.3.149,0.306,0,0.087-.021.177,0.1,0.142-0.021.138,0.064,0.171,0.176,0.178,0,0.12.023,0.213,0.149,0.207a3.99,3.99,0,0,0,.181.375c0.067,0.009.184-.032,0.15,0.075a0.3,0.3,0,0,1,.331.124c0.1-.035.344,0.075,0.326-0.078a2.051,2.051,0,0,0,.4-0.046c0.218-.267.567-0.4,0.782-0.656,0.132,0.007.223-.017,0.23-0.129a2.055,2.055,0,0,0,.533-0.242,0.475,0.475,0,0,1,.048-0.213,0.4,0.4,0,0,0,.329-0.245,0.371,0.371,0,0,0,.327-0.326,3.706,3.706,0,0,0,.379-0.177c-0.032-.13.081-0.116,0.052-0.252a2.617,2.617,0,0,1,.277-0.125,1.785,1.785,0,0,1,.053-0.275,0.548,0.548,0,0,0,.429-0.374,1.317,1.317,0,0,0,.177-0.05c-0.014-.089,0-0.165.1-0.127V46.121a0.453,0.453,0,0,0,.227-0.046c-0.011-.087-0.006-0.155.1-0.126,0-.126.027-0.217,0.152-0.213V45.623a0.5,0.5,0,0,1,.179-0.051c-0.039-.205.19-0.132,0.152-0.325,0.146,0.01.107-.144,0.249-0.131V44.911c0.1,0.033.076-.059,0.076-0.119,0.093-.038.246-0.008,0.253-0.129a0.6,0.6,0,0,1,.609.078m-12.508.7a1.361,1.361,0,0,0,.051.223,2.521,2.521,0,0,0,.278.282,0.507,0.507,0,0,0,.053.217,0.241,0.241,0,0,0,.1.029,1,1,0,0,0,.079.234,0.3,0.3,0,0,1,.148.32,0.117,0.117,0,0,0,.1.03c0,0.092-.037.211,0.1,0.174a0.509,0.509,0,0,0,.407.448,0.407,0.407,0,0,0,.329.378c0.03,0.389.571,0.253,0.576,0.663h0.156c-0.014.084-.007,0.157,0.1,0.125,0,0.1-.035.263,0.076,0.272a2.333,2.333,0,0,1-.076.755h-0.1c0.037,0.249-.268.139-0.227,0.372-0.088.069-.315-0.009-0.331,0.128a4.683,4.683,0,0,0-1.414.133c-0.055,0-.012.078-0.025,0.119a0.381,0.381,0,0,0-.382.336,3.845,3.845,0,0,0-.856.373c0.046,0.21-.214.116-0.179,0.324h-0.122A2.556,2.556,0,0,0,234.8,52a0.173,0.173,0,0,0-.175.205c-0.172.009-.149,0.205-0.154,0.379h-0.1v0.755h-0.079v2.085c0.005,0.031.046,0.022,0.079,0.027v2.591c0.007,0.035.064,0.019,0.1,0.028v6.789h-0.1a0.252,0.252,0,0,1-.177.3,1.5,1.5,0,0,1-.053.327,0.7,0.7,0,0,0-.429.251c-0.161-.009-0.317-0.016-0.328.124-0.4.034-.451,0.409-0.832,0.455-0.012.143-.239,0.068-0.253,0.2H231.21c0.01-.137-0.2-0.057-0.153-0.23-0.158-.01-0.115-0.22-0.276-0.227-0.007-.085.041-0.245-0.1-0.2-0.009-.14,0-0.292-0.15-0.292-0.031-.109.074-0.35-0.077-0.333V63.748h0.077V60.761h0.1V56.706c0-.035-0.058-0.021-0.1-0.025a6.084,6.084,0,0,0-.077-1.331,0.12,0.12,0,0,0-.1-0.022,0.6,0.6,0,0,0-.336-0.578h-0.725c-0.034,0-.025.045-0.027,0.08-0.264-.042-0.373.078-0.632,0.049-0.03,0-.023.042-0.025,0.069a41.532,41.532,0,0,1-4.271,0V54.879a1.483,1.483,0,0,1-.556-0.183V54.374c0.1,0.033.076-.066,0.076-0.135a2.12,2.12,0,0,0,.909-0.576,4.468,4.468,0,0,0,.733-0.172c0.08-.23.53-0.094,0.528-0.4a0.5,0.5,0,0,0,.482-0.253c0.753-.045.909-0.706,1.589-0.836,0.037-.1.2-0.074,0.179-0.245a0.872,0.872,0,0,0,.331-0.126c-0.055-.137.087-0.082,0.073-0.2h0.181a3.09,3.09,0,0,1,1.106-.875,0.65,0.65,0,0,1,.049-0.208h0.155a1.213,1.213,0,0,0,.181-0.327,0.786,0.786,0,0,0,.271-0.053c-0.035-.288.355-0.165,0.333-0.45a0.117,0.117,0,0,0,.149-0.121h0.149a0.374,0.374,0,0,1,.283-0.257,0.734,0.734,0,0,1,.505-0.5,1.807,1.807,0,0,1,.074-0.276,0.266,0.266,0,0,0,.252-0.245,0.739,0.739,0,0,0,.482-0.507c0.1,0.032.11-.037,0.1-0.126,0.163,0.035.085-.16,0.252-0.12a0.174,0.174,0,0,1,.178-0.207c-0.035-.136.087-0.118,0.052-0.251a1.534,1.534,0,0,1,.276-0.206c-0.069-.344.344-0.209,0.325-0.5,0.163,0.035.088-.16,0.255-0.12-0.036-.24.269-0.137,0.228-0.384h0.1a1.915,1.915,0,0,1,.5-0.522h0.308a0.932,0.932,0,0,1,.879.275m86.426-.743a1.554,1.554,0,0,0,1.157.355c0.037,0.194.3,0.148,0.513,0.153-0.044.112,0.082,0.057,0.06,0.14a1.568,1.568,0,0,1,.509.087V45.6a1.939,1.939,0,0,1,.509.377,0.766,0.766,0,0,0,.18.482,1.529,1.529,0,0,0,.087.837v0.77a0.936,0.936,0,0,1,.3.416,15.447,15.447,0,0,0,2.877,0,0.287,0.287,0,0,1,.055-0.094,1.05,1.05,0,0,0,.932-0.674c0.115,0.039.087-.062,0.177-0.057a0.737,0.737,0,0,0,.145-0.338,0.47,0.47,0,0,0,.452-0.29H331.5c0,0.111.091,0.143,0.206,0.146a0.726,0.726,0,0,0,.391.322,2.366,2.366,0,0,0,.177.421,0.628,0.628,0,0,0,.208.084,3.442,3.442,0,0,1,.184.387,1.109,1.109,0,0,1,.505.25,3.035,3.035,0,0,0,.594.6h0.306a1.251,1.251,0,0,1,.478.549c0.007,0.045.076,0.018,0.121,0.022a2.79,2.79,0,0,1,0,.848,3.4,3.4,0,0,0-.629.243c-2.441.028-5.019-.059-7.356,0.05-0.184.15-.471,0.188-0.634,0.334,0.059,0.288-.149.306-0.09,0.594a3.527,3.527,0,0,0-.09,1.263,0.224,0.224,0,0,1,.09.062v0.53a0.822,0.822,0,0,0,.421.35v0.156c0.911,0.121,1.942-.08,2.991,0a0.623,0.623,0,0,1,.51-0.156c0.271-.294.675-0.459,0.927-0.779h0.171c0.036-.041.119-0.037,0.1-0.135,0.564-.006.633-0.519,1.34-0.393a1.57,1.57,0,0,1,.838.743c0.058,0.032.123,0.06,0.177,0.087v0.206a0.5,0.5,0,0,0,.244.09,0.365,0.365,0,0,0,.269.387c-0.012.1-.008,0.185,0.121,0.149v1.376h-0.121c0.043,0.343-.092.5-0.058,0.842h-0.127a37.773,37.773,0,0,0,0,4.189,0.137,0.137,0,0,0,.127.028c-0.032.353,0.1,0.526,0.058,0.9,0.007,0.039.076,0.018,0.121,0.023a12.575,12.575,0,0,0,.093,1.409c0.006,0.043.068,0.023,0.114,0.032V64.2h-0.114c0.054,0.247-.153.22-0.093,0.448a2.22,2.22,0,0,1-.363.3,3.347,3.347,0,0,1-.325.4,0.356,0.356,0,0,0-.391.226c-0.306,0-.455.147-0.751,0.151-0.06.011-.05-0.036-0.053-0.08-0.44.039-.711-0.078-1.106-0.071a1.123,1.123,0,0,0-.186-0.226H330.69c-0.172-.283-1.008-0.1-1.493-0.152-0.066.019-.057-0.046-0.061-0.1-2.078-.025-4.3.089-6.283-0.05-0.069.013-.064-0.05-0.064-0.1a14.734,14.734,0,0,0-2.035,0,4.888,4.888,0,0,1-.447.243,2.132,2.132,0,0,0-.448.059,1.439,1.439,0,0,0-.416.471,0.178,0.178,0,0,0-.184.22h-0.174c-0.36.374-2.094,0.557-2.188-.185,0-.043-0.073-0.035-0.12-0.035a2.557,2.557,0,0,1-.087-0.594,0.149,0.149,0,0,0-.124-0.032V64.649h0.124a10.833,10.833,0,0,1,.087-1.87h0.12v-0.9c0-.042-0.073-0.028-0.12-0.035V61.163h0.12a23.568,23.568,0,0,1,.06-2.494h0.121V58.393a0.143,0.143,0,0,0-.121-0.025c0.041-1.838-.063-3.536-0.06-5.339,0.025-.075-0.138.027-0.12-0.055-0.029-.087.07-0.055,0.12-0.059a1.916,1.916,0,0,1,.06-0.648,0.22,0.22,0,0,0,.209-0.148,3,3,0,0,1,.835.061c0.064-.02.058,0.041,0.062,0.087a4.221,4.221,0,0,1,.633.045c0.061-.006.054,0.048,0.056,0.092a1.546,1.546,0,0,1,.778.366c-0.015.1-.006,0.18,0.122,0.144a0.332,0.332,0,0,0,.18.339,0.172,0.172,0,0,0,.087.227v0.865c0.061,0.031.167,0.029,0.119,0.182a2.189,2.189,0,0,0,1.107.211c0.105-.044.018,0.087,0.094,0.08a1.654,1.654,0,0,1,.567-0.14,1.282,1.282,0,0,0,.087-0.69h0.122V52.18c-0.014-.07.043-0.061,0.085-0.061a1.4,1.4,0,0,0-.085-0.823V48.568a0.14,0.14,0,0,0-.122-0.029,15.966,15.966,0,0,0-.057-1.7c-0.009-.039-0.078-0.021-0.12-0.021,0.051-.263-0.156-0.252-0.092-0.511a0.123,0.123,0,0,0-.117-0.03,2.217,2.217,0,0,1,0-.983h0.117c-0.043-.284.316-0.162,0.269-0.453A0.2,0.2,0,0,0,322.1,44.7h0.636Zm5.949,12.679h-6.131c-0.034,0-.029.046-0.029,0.09-0.5.071-1.063-.09-1.5,0a4.405,4.405,0,0,0-.6.386,8.76,8.76,0,0,0-.09,1.168c0.007,0.082-.17-0.03-0.124.092v2.557a0.375,0.375,0,0,1,.214.334,1.941,1.941,0,0,0,1.042.142c0.179,0.189.714,0.027,0.868,0.235h4.4a0.576,0.576,0,0,1,.656,0c0.258-.031.6,0.051,0.9,0a0.33,0.33,0,0,0,.089-0.085c0.43-.124,1.046.038,1.378-0.06a0.541,0.541,0,0,0,.063-0.091,0.717,0.717,0,0,1,.206,0,2.8,2.8,0,0,0,.268-0.238,0.562,0.562,0,0,0,.207-0.265c0.1-.342-0.062-0.816,0-1.28,0.207-.023.161-0.572,0-0.6V58.7c-0.085-.016-0.1-0.119-0.082-0.243a0.479,0.479,0,0,1-.3-0.384c-0.108-.038-0.25-0.027-0.209-0.214a0.365,0.365,0,0,1-.395-0.325,2.175,2.175,0,0,1-.836-0.151M276.4,51.68c-0.025.087,0.038,0.087,0.1,0.076a0.534,0.534,0,0,0,.482.375c0.019,0.118.143,0.134,0.276,0.134,0,0.122.1,0.138,0.227,0.122,0.033,0.02.113,0.169,0.152,0.2a0.983,0.983,0,0,1,.1,0,0.237,0.237,0,0,0,.276.13V52.8c0.321-.048.349,0.2,0.656,0.164v0.078c0.26-.037.23,0.206,0.481,0.181V53.28a6.584,6.584,0,0,0,.86.135v0.078c0.251-.034.221,0.213,0.478,0.172a0.457,0.457,0,0,0,.331.386v0.167c0.161,0.007.117,0.227,0.278,0.236,0,0.129.006,0.258,0.151,0.245,0.026,0.089-.067.278,0.071,0.252v0.807a0.125,0.125,0,0,0,.106.023v0.206h-0.106v0.5c-0.124-.035-0.055.123-0.071,0.2a0.287,0.287,0,0,0-.151.051v0.212a0.479,0.479,0,0,0-.18.046V57.11c-0.1-.03-0.112.04-0.1,0.128a1.117,1.117,0,0,0-.331.128v0.146c-0.122,0-.237.014-0.25,0.129a2.484,2.484,0,0,1-.559.05c-0.029.007-.017,0.045-0.025,0.077h-0.732a0.616,0.616,0,0,0-.427-0.128V57.563a1.766,1.766,0,0,1-.585-0.325c-0.026-.1.075-0.324-0.071-0.3-0.042-.135.093-0.434-0.1-0.4-0.023-.1.064-0.3-0.1-0.26-0.048-.137.021-0.4-0.152-0.425-0.032-.1.078-0.343-0.071-0.327-0.046-.14.1-0.469-0.1-0.45a3.494,3.494,0,0,0-.053-0.677c0-.039-0.06-0.023-0.1-0.025,0.055-.25-0.12-0.256-0.076-0.481a0.932,0.932,0,0,0-.252-0.23,0.347,0.347,0,0,0-.276-0.325,1.432,1.432,0,0,0-.053-0.224,1.3,1.3,0,0,0-.278-0.156,0.369,0.369,0,0,0-.328-0.3,2.251,2.251,0,0,1,0-.983,0.953,0.953,0,0,1,.5,0" transform="translate(-121.844 -34.25)"/>
</svg>
